name Walk3.mot
datacolumns 19
datarows 12
range 3.27500000 3.33000000
endheader

                time	   L_ground_force_vx	   L_ground_force_vy	   L_ground_force_vz	   L_ground_force_px	   L_ground_force_py	   L_ground_force_pz	   R_ground_force_vx	   R_ground_force_vy	   R_ground_force_vz	   R_ground_force_px	   R_ground_force_py	   R_ground_force_pz	   L_ground_torque_x	   L_ground_torque_y	   L_ground_torque_z	   R_ground_torque_x	   R_ground_torque_y	   R_ground_torque_z	
          3.27500000	          0.04364675	          0.11019481	         -0.00440555	         -0.00040135	          0.00000000	         -0.00005692	        -34.65449189	        695.09904633	        -33.39484202	          0.12885399	          0.00000000	          0.08785347	          0.00000000	          0.00028505	          0.00000000	          0.00000000	          4.38858352	          0.00000000	
          3.28000000	          0.03153974	          0.07382042	         -0.00383428	         -0.00033209	          0.00000000	         -0.00004711	        -32.36977686	        689.14349087	        -33.07924188	          0.12967536	          0.00000000	          0.08805168	          0.00000000	          0.00023152	          0.00000000	          0.00000000	          4.30184185	          0.00000000	
          3.28500000	          0.02128134	          0.04465593	         -0.00316469	         -0.00026141	          0.00000000	         -0.00003709	        -30.06463420	        683.11788025	        -32.89683843	          0.13050430	          0.00000000	          0.08828047	          0.00000000	          0.00017889	          0.00000000	          0.00000000	          4.23649167	          0.00000000	
          3.29000000	          0.01301973	          0.02242156	         -0.00248501	         -0.00019541	          0.00000000	         -0.00002774	        -27.73589864	        677.05212061	        -32.83051763	          0.13133489	          0.00000000	          0.08853836	          0.00000000	          0.00013098	          0.00000000	          0.00000000	          4.18864086	          0.00000000	
          3.29500000	          0.00669201	          0.00638982	         -0.00185261	         -0.00013763	          0.00000000	         -0.00001954	        -25.38174867	        670.98429153	        -32.85632300	          0.13216323	          0.00000000	          0.08882246	          0.00000000	          0.00008991	          0.00000000	          0.00000000	          4.15366983	          0.00000000	
          3.30000000	          0.00210491	         -0.00439638	         -0.00130054	         -0.00008969	          0.00000000	         -0.00001274	        -23.00181695	        664.95642140	        -32.94722926	          0.13298531	          0.00000000	          0.08912914	          0.00000000	          0.00005645	          0.00000000	          0.00000000	          4.12687917	          0.00000000	
          3.30500000	         -0.00100318	         -0.01096567	         -0.00084365	         -0.00005186	          0.00000000	         -0.00000737	        -20.59699876	        659.01119588	        -33.07676327	          0.13379730	          0.00000000	          0.08945508	          0.00000000	          0.00003053	          0.00000000	          0.00000000	          4.10377154	          0.00000000	
          3.31000000	         -0.00291699	         -0.01431117	         -0.00048394	         -0.00002349	          0.00000000	         -0.00000335	        -18.16910906	        653.18643289	        -33.22199058	          0.13459447	          0.00000000	          0.08979812	          0.00000000	          0.00001150	          0.00000000	          0.00000000	          4.08054677	          0.00000000	
          3.31500000	         -0.00391359	         -0.01532473	         -0.00021499	         -0.00000344	          0.00000000	         -0.00000050	        -15.72076144	        647.51352136	        -33.36576751	          0.13537339	          0.00000000	          0.09015747	          0.00000000	         -0.00000162	          0.00000000	          0.00000000	          4.05458261	          0.00000000	
          3.32000000	         -0.00424317	         -0.01476271	         -0.00002551	          0.00000968	          0.00000000	          0.00000137	        -13.25478270	        642.01713962	        -33.49837052	          0.13613158	          0.00000000	          0.09053379	          0.00000000	         -0.00000990	          0.00000000	          0.00000000	          4.02482748	          0.00000000	
          3.32500000	         -0.00411894	         -0.01323475	          0.00009802	          0.00001734	          0.00000000	          0.00000245	        -10.77417163	        636.71577941	        -33.61780233	          0.13686772	          0.00000000	          0.09092726	          0.00000000	         -0.00001443	          0.00000000	          0.00000000	          3.99161854	          0.00000000	
          3.33000000	         -0.00371352	         -0.01120818	          0.00016948	          0.00002087	          0.00000000	          0.00000296	         -8.28395620	        631.62425829	        -33.72896833	          0.13758230	          0.00000000	          0.09133655	          0.00000000	         -0.00001619	          0.00000000	          0.00000000	          3.95617151	          0.00000000	
